<svg width="85" height="15" viewBox="0 0 85 15" fill="none" xmlns="http://www.w3.org/2000/svg">
<path d="M77.9994 9.908C78.4314 9.732 78.7714 9.548 79.0194 9.356C79.2674 9.156 79.5714 8.868 79.9314 8.492C80.2914 8.116 80.5274 7.88 80.6394 7.784C81.0234 7.448 81.4314 7.28 81.8634 7.28C82.1274 7.28 82.4154 7.344 82.7274 7.472C83.0474 7.6 83.3434 7.828 83.6154 8.156C83.8874 8.484 84.0234 8.876 84.0234 9.332C84.0234 9.78 83.7594 10.172 83.2314 10.508C82.7034 10.836 82.0074 11 81.1434 11C80.9034 11 80.7834 10.88 80.7834 10.64C80.7834 10.4 80.9034 10.28 81.1434 10.28C81.7994 10.28 82.3234 10.176 82.7154 9.968C83.1074 9.752 83.3034 9.536 83.3034 9.32C83.3034 9.024 83.2074 8.768 83.0154 8.552C82.6794 8.184 82.2954 8 81.8634 8C81.6154 8 81.3714 8.104 81.1314 8.312C81.0594 8.376 80.8274 8.608 80.4354 9.008C80.0514 9.408 79.7314 9.708 79.4754 9.908C79.2274 10.108 78.9394 10.28 78.6114 10.424C78.2914 10.568 78.0874 10.64 77.9994 10.64C77.7594 10.64 77.6394 10.52 77.6394 10.28C77.6394 10.128 77.7594 10.004 77.9994 9.908Z" fill="white"/>
<path d="M69.7397 9.14C70.5397 8.644 70.9397 8.144 70.9397 7.64C70.9397 7.48 70.8797 7.34 70.7597 7.22C70.6397 7.1 70.4837 7.04 70.2917 7.04C70.0997 7.04 69.9397 7.172 69.8117 7.436C69.6837 7.7 69.6197 7.988 69.6197 8.3C69.6197 8.612 69.6597 8.892 69.7397 9.14ZM74.8997 3.104L74.8757 3.344C74.6517 5.584 74.5397 7.016 74.5397 7.64C74.5397 8.264 74.5797 8.664 74.6597 8.84C74.7237 8.792 74.8197 8.704 74.9477 8.576L75.3557 8.168C75.7077 7.816 76.2117 7.472 76.8677 7.136C76.9957 7.072 77.0997 7.04 77.1797 7.04C77.4197 7.04 77.5397 7.16 77.5397 7.4C77.5397 7.536 77.4197 7.664 77.1797 7.784C76.8037 7.976 76.4557 8.2 76.1357 8.456C75.8237 8.696 75.5877 8.912 75.4277 9.104C75.0437 9.568 74.7877 9.8 74.6597 9.8C74.3957 9.8 74.1917 9.636 74.0477 9.308C73.9117 8.972 73.8357 8.58 73.8197 8.132C73.4437 9.06 72.9997 9.772 72.4877 10.268C71.9837 10.756 71.4357 11 70.8437 11C70.2597 11 69.7837 10.712 69.4157 10.136C69.2317 10.232 69.0917 10.28 68.9957 10.28C68.9077 10.28 68.8277 10.248 68.7557 10.184C68.6917 10.112 68.6597 10.044 68.6597 9.98C68.6597 9.916 68.6597 9.876 68.6597 9.86C68.6677 9.836 68.6717 9.816 68.6717 9.8C68.6797 9.784 68.6877 9.768 68.6957 9.752C68.7037 9.736 68.7117 9.724 68.7197 9.716C68.7277 9.7 68.7397 9.684 68.7557 9.668C68.7797 9.644 68.7957 9.632 68.8037 9.632C68.8757 9.6 68.9157 9.58 68.9237 9.572C68.9397 9.564 68.9957 9.536 69.0917 9.488C68.9637 9.128 68.8997 8.708 68.8997 8.228C68.8997 7.74 69.0277 7.3 69.2837 6.908C69.5477 6.516 69.8797 6.32 70.2797 6.32C70.6797 6.32 71.0077 6.452 71.2637 6.716C71.5277 6.972 71.6597 7.28 71.6597 7.64C71.6597 8.424 71.1237 9.144 70.0517 9.8C70.2677 10.12 70.5237 10.28 70.8197 10.28C71.5797 10.28 72.2717 9.66 72.8957 8.42C73.5197 7.172 73.9477 5.4 74.1797 3.104C74.2037 2.864 74.3237 2.744 74.5397 2.744C74.7797 2.744 74.8997 2.864 74.8997 3.104Z" fill="white"/>
<path d="M62.5032 9.392C62.5192 9.368 62.5552 9.196 62.6112 8.876C62.6752 8.556 62.7472 8.244 62.8272 7.94C62.9152 7.628 63.0672 7.34 63.2832 7.076C63.5072 6.812 63.7752 6.68 64.0872 6.68C64.6952 6.68 65.2072 6.84 65.6232 7.16C66.0472 7.472 66.2592 7.876 66.2592 8.372C66.2592 8.868 66.3272 9.312 66.4632 9.704C66.5992 10.088 66.7792 10.28 67.0032 10.28C67.1552 10.28 67.3432 10.232 67.5672 10.136C67.9272 9.992 68.1392 9.92 68.2032 9.92C68.4432 9.92 68.5632 10.04 68.5632 10.28C68.5632 10.456 68.4432 10.584 68.2032 10.664C67.7552 10.888 67.3512 11 66.9912 11C66.6392 11 66.3472 10.852 66.1152 10.556C65.8832 10.252 65.7272 9.916 65.6472 9.548C65.5752 9.18 65.5392 8.784 65.5392 8.36C65.5392 8.08 65.4032 7.852 65.1312 7.676C64.8592 7.492 64.5152 7.4 64.0992 7.4C63.7632 7.4 63.4992 7.936 63.3072 9.008C63.2272 9.424 63.1712 9.664 63.1392 9.728C63.0032 10.008 62.6312 10.28 62.0232 10.544C61.8792 10.608 61.7632 10.64 61.6752 10.64C61.4352 10.64 61.3152 10.52 61.3152 10.28C61.3152 10.128 61.4352 10.004 61.6752 9.908C62.1472 9.716 62.4232 9.544 62.5032 9.392Z" fill="white"/>
<path d="M56.8936 7.64C57.1336 7.64 57.2536 7.76 57.2536 8C57.2536 8.096 57.2336 8.192 57.1936 8.288C57.1536 8.384 57.1336 8.5 57.1336 8.636C57.1336 8.764 57.1736 8.896 57.2536 9.032C57.3416 9.168 57.4656 9.316 57.6256 9.476C57.7856 9.628 58.0256 9.76 58.3456 9.872C58.6656 9.984 58.9856 10.04 59.3056 10.04C59.6336 10.04 59.9136 9.956 60.1456 9.788C60.3776 9.62 60.4936 9.384 60.4936 9.08C60.4936 8.576 60.3776 8.172 60.1456 7.868C59.9136 7.556 59.5896 7.4 59.1736 7.4C58.9816 7.4 58.7856 7.46 58.5856 7.58C58.3936 7.7 58.2696 7.76 58.2136 7.76C57.9736 7.76 57.8536 7.64 57.8536 7.4C57.8536 7.248 57.9896 7.092 58.2616 6.932C58.5416 6.764 58.8456 6.68 59.1736 6.68C59.7816 6.68 60.2736 6.904 60.6496 7.352C61.0256 7.792 61.2136 8.368 61.2136 9.08C61.2136 9.592 61.0216 10 60.6376 10.304C60.2616 10.608 59.8576 10.76 59.4256 10.76C58.9936 10.76 58.5976 10.708 58.2376 10.604C57.8856 10.492 57.6016 10.356 57.3856 10.196C57.1696 10.028 56.9816 9.848 56.8216 9.656C56.5496 9.32 56.4136 9.012 56.4136 8.732C56.4136 8.444 56.4576 8.192 56.5456 7.976C56.6336 7.752 56.7496 7.64 56.8936 7.64Z" fill="white"/>
<path d="M52.064 4.58C51.92 4.38 51.848 4.176 51.848 3.968C51.848 3.76 51.916 3.58 52.052 3.428C52.196 3.276 52.372 3.172 52.58 3.116C52.796 3.06 53.044 3.008 53.324 2.96C53.604 2.912 53.848 2.876 54.056 2.852C54.6 2.788 54.888 2.756 54.92 2.756C54.96 2.748 55.016 2.744 55.088 2.744C55.328 2.744 55.448 2.864 55.448 3.104C55.448 3.168 55.416 3.24 55.352 3.32C55.288 3.4 55.224 3.444 55.16 3.452C55.096 3.46 54.956 3.48 54.74 3.512C54.532 3.536 54.316 3.564 54.092 3.596C53.868 3.62 53.636 3.652 53.396 3.692C52.844 3.788 52.568 3.88 52.568 3.968C52.568 4.032 52.712 4.24 53 4.592C53.288 4.936 53.624 5.34 54.008 5.804C54.4 6.268 54.68 6.64 54.848 6.92C55.024 7.192 55.112 7.5 55.112 7.844C55.112 8.18 54.988 8.56 54.74 8.984C54.5 9.4 54.204 9.752 53.852 10.04C53.508 10.32 53.152 10.552 52.784 10.736C52.416 10.912 52.076 11 51.764 11C51.46 11 51.196 10.9 50.972 10.7C50.756 10.5 50.648 10.24 50.648 9.92C50.648 9.064 50.92 8.376 51.464 7.856C52.016 7.328 52.592 7.064 53.192 7.064C53.304 7.064 53.48 7.084 53.72 7.124C53.96 7.164 54.124 7.208 54.212 7.256C54.052 6.992 53.692 6.532 53.132 5.876C52.572 5.212 52.216 4.78 52.064 4.58ZM54.356 8.072C54.228 8.008 54.036 7.944 53.78 7.88C53.524 7.816 53.328 7.784 53.192 7.784C52.8 7.784 52.396 7.976 51.98 8.36C51.572 8.736 51.368 9.256 51.368 9.92C51.368 10.032 51.416 10.12 51.512 10.184C51.608 10.248 51.736 10.28 51.896 10.28C52.056 10.28 52.296 10.196 52.616 10.028C52.944 9.86 53.284 9.6 53.636 9.248C53.988 8.888 54.228 8.496 54.356 8.072Z" fill="white"/>
<path d="M44.3724 9.2C43.8364 9.584 43.5684 9.984 43.5684 10.4C43.5684 10.64 43.6884 10.76 43.9284 10.76C44.0564 10.76 44.1684 10.676 44.2644 10.508C44.3604 10.34 44.4084 10.128 44.4084 9.872C44.4084 9.616 44.3964 9.392 44.3724 9.2ZM47.3364 8.312C47.2484 8.264 47.1484 8.24 47.0364 8.24C46.9244 8.24 46.8164 8.248 46.7124 8.264C46.6084 8.272 46.5164 8.284 46.4364 8.3C46.3564 8.308 46.2684 8.328 46.1724 8.36C46.0764 8.384 46.0004 8.408 45.9444 8.432C45.8884 8.448 45.8084 8.48 45.7044 8.528C45.6004 8.568 45.5284 8.596 45.4884 8.612C45.4484 8.628 45.3724 8.664 45.2604 8.72L45.0444 8.828C45.1004 9.108 45.1284 9.476 45.1284 9.932C45.1284 10.388 45.0124 10.76 44.7804 11.048C44.5484 11.336 44.2644 11.48 43.9284 11.48C43.5924 11.48 43.3284 11.38 43.1364 11.18C42.9444 10.988 42.8484 10.728 42.8484 10.4C42.8484 9.656 43.3044 9.008 44.2164 8.456C44.0004 7.912 43.6644 7.64 43.2084 7.64C42.8724 7.64 42.5204 7.744 42.1524 7.952C41.7924 8.16 41.4804 8.392 41.2164 8.648C40.9604 8.904 40.6724 9.192 40.3524 9.512C39.7924 10.072 39.3324 10.416 38.9724 10.544C38.8284 10.608 38.7124 10.64 38.6244 10.64C38.3844 10.64 38.2644 10.52 38.2644 10.28C38.2644 10.128 38.3724 10.012 38.5884 9.932C38.8044 9.844 38.9924 9.74 39.1524 9.62C39.3124 9.5 39.5524 9.28 39.8724 8.96C40.1924 8.632 40.5004 8.328 40.7964 8.048C41.0924 7.768 41.4644 7.512 41.9124 7.28C42.3604 7.04 42.7924 6.92 43.2084 6.92C43.9844 6.92 44.5324 7.324 44.8524 8.132C44.8604 8.124 44.9164 8.096 45.0204 8.048C45.1324 7.992 45.1964 7.96 45.2124 7.952C45.2284 7.944 45.2844 7.916 45.3804 7.868C45.4844 7.82 45.5524 7.792 45.5844 7.784C45.6164 7.776 45.6764 7.756 45.7644 7.724C45.8604 7.684 45.9324 7.66 45.9804 7.652C46.0364 7.636 46.1124 7.62 46.2084 7.604C46.3044 7.58 46.3924 7.564 46.4724 7.556C46.6964 7.532 46.8804 7.52 47.0244 7.52C47.4644 7.52 47.7844 7.668 47.9844 7.964C48.1924 8.26 48.3364 8.588 48.4164 8.948C48.4964 9.308 48.5564 9.548 48.5964 9.668C48.6364 9.78 48.7084 9.892 48.8124 10.004C48.9164 10.108 49.0444 10.16 49.1964 10.16C49.3564 10.16 49.5564 10.12 49.7964 10.04C50.0364 9.96 50.1684 9.92 50.1924 9.92C50.4324 9.92 50.5524 10.04 50.5524 10.28C50.5524 10.456 50.4324 10.584 50.1924 10.664C49.7604 10.808 49.4324 10.88 49.2084 10.88C48.7684 10.88 48.4444 10.74 48.2364 10.46C48.0284 10.172 47.8724 9.788 47.7684 9.308C47.6484 8.74 47.5044 8.408 47.3364 8.312ZM47.3724 5.936C47.2684 6.016 47.1444 6.056 47.0004 6.056C46.8564 6.056 46.7324 5.992 46.6284 5.864C46.5244 5.728 46.4724 5.588 46.4724 5.444C46.4724 5.292 46.5244 5.18 46.6284 5.108C46.7324 5.036 46.8404 5 46.9524 5C47.3364 5 47.5284 5.2 47.5284 5.6C47.5284 5.736 47.4764 5.848 47.3724 5.936Z" fill="white"/>
<path d="M24.4353 7.724C25.4273 6.732 25.9233 5.744 25.9233 4.76C25.9233 3.896 25.7233 3.464 25.3233 3.464C25.1153 3.464 24.9073 3.756 24.6993 4.34C24.4753 4.964 24.3633 5.744 24.3633 6.68C24.3633 7.072 24.3873 7.42 24.4353 7.724ZM28.7553 8.456C29.2033 8.12 29.5633 7.732 29.8353 7.292C30.1073 6.852 30.2433 6.432 30.2433 6.032C30.2433 5.632 30.2113 5.312 30.1473 5.072C30.0833 4.832 30.0033 4.664 29.9073 4.568C29.7313 4.392 29.5633 4.304 29.4033 4.304C29.2753 4.304 29.1553 4.38 29.0433 4.532C28.9393 4.676 28.8553 4.832 28.7913 5C28.6393 5.4 28.5633 5.952 28.5633 6.656C28.5633 7.36 28.6273 7.96 28.7553 8.456ZM24.1233 8.972C23.4673 9.508 22.7913 9.964 22.0953 10.34C21.7273 10.54 21.4753 10.64 21.3393 10.64C21.0993 10.64 20.9793 10.52 20.9793 10.28C20.9793 10.128 21.0873 10.012 21.3033 9.932C21.5193 9.852 21.8673 9.664 22.3473 9.368C22.8273 9.072 23.3233 8.708 23.8353 8.276C23.7073 7.812 23.6433 7.28 23.6433 6.68C23.6433 5.536 23.8033 4.596 24.1233 3.86C24.4433 3.116 24.8313 2.744 25.2873 2.744C26.1913 2.744 26.6433 3.396 26.6433 4.7C26.6433 6.004 25.9873 7.268 24.6753 8.492C24.9553 9.044 25.4913 9.32 26.2833 9.32C26.8993 9.32 27.5153 9.16 28.1313 8.84C27.9393 8.264 27.8433 7.504 27.8433 6.56C27.8433 5.616 27.9913 4.884 28.2873 4.364C28.5833 3.844 28.9433 3.584 29.3673 3.584C29.7913 3.584 30.1633 3.772 30.4833 4.148C30.8033 4.516 30.9633 5.12 30.9633 5.96C30.9633 6.528 30.7873 7.1 30.4353 7.676C30.0833 8.244 29.6153 8.728 29.0313 9.128C29.2873 9.584 29.5833 9.892 29.9193 10.052C30.2553 10.204 30.7233 10.28 31.3233 10.28C31.5233 10.28 31.8313 10.22 32.2473 10.1C32.6633 9.98 32.8833 9.92 32.9073 9.92C33.1473 9.92 33.2673 10.04 33.2673 10.28C33.2673 10.456 33.1473 10.584 32.9073 10.664C32.2353 10.888 31.7073 11 31.3233 11C30.6033 11 30.0153 10.888 29.5593 10.664C29.1033 10.44 28.7233 10.052 28.4193 9.5C27.7153 9.86 27.0033 10.04 26.2833 10.04C25.2673 10.04 24.5473 9.684 24.1233 8.972Z" fill="white"/>
<path d="M12.0037 7.76L12.1237 8.24C12.1237 8.48 12.0037 8.6 11.7637 8.6C11.6597 8.6 11.5517 8.516 11.4397 8.348C11.3357 8.18 11.2837 7.984 11.2837 7.76C11.2837 7.368 11.5237 7.076 12.0037 6.884C12.3397 6.748 12.6837 6.68 13.0357 6.68C13.3957 6.68 13.6717 6.78 13.8637 6.98C14.0637 7.172 14.1637 7.464 14.1637 7.856C14.1637 8.24 14.1997 8.636 14.2717 9.044C14.3437 9.444 14.4277 9.752 14.5237 9.968C14.6197 10.176 14.7077 10.28 14.7877 10.28C14.9797 10.28 15.2317 10.224 15.5437 10.112C15.8637 9.992 16.1557 9.8 16.4197 9.536C16.4597 9.496 16.5877 9.364 16.8037 9.14C17.0197 8.916 17.1877 8.748 17.3077 8.636C17.4197 8.524 17.5717 8.388 17.7637 8.228C18.1317 7.916 18.4437 7.76 18.6997 7.76C18.9637 7.76 19.1797 7.844 19.3477 8.012C19.5157 8.172 19.6397 8.368 19.7197 8.6C19.7917 8.84 19.8597 9.08 19.9237 9.32C20.0677 9.888 20.2277 10.168 20.4037 10.16C20.5557 10.16 20.7517 10.12 20.9917 10.04C21.2317 9.96 21.3637 9.92 21.3877 9.92C21.6277 9.92 21.7477 10.04 21.7477 10.28C21.7477 10.456 21.6277 10.584 21.3877 10.664C20.9557 10.808 20.6197 10.88 20.3797 10.88C20.1477 10.88 19.9477 10.8 19.7797 10.64C19.6117 10.472 19.4877 10.272 19.4077 10.04C19.3357 9.8 19.2677 9.56 19.2037 9.32C19.0597 8.76 18.9037 8.48 18.7357 8.48C18.5677 8.48 17.9637 9 16.9237 10.04C16.6357 10.328 16.2917 10.56 15.8917 10.736C15.4917 10.912 15.1237 11 14.7877 11C14.3717 11 14.0437 10.696 13.8037 10.088C13.5637 9.472 13.4437 8.696 13.4437 7.76C13.4437 7.52 13.3277 7.4 13.0957 7.4C12.9117 7.4 12.6837 7.436 12.4117 7.508C12.1397 7.572 12.0037 7.656 12.0037 7.76ZM19.0837 5.048C19.2117 5.048 19.3437 5.108 19.4797 5.228C19.6157 5.34 19.6837 5.46 19.6837 5.588C19.6837 5.708 19.6317 5.8 19.5277 5.864C19.4317 5.928 19.3197 5.96 19.1917 5.96C19.0637 5.96 18.9517 5.904 18.8557 5.792C18.7677 5.672 18.7237 5.544 18.7237 5.408C18.7237 5.168 18.8437 5.048 19.0837 5.048Z" fill="white"/>
<path d="M7.57668 5.048C7.70468 5.048 7.83668 5.108 7.97268 5.228C8.10868 5.34 8.17668 5.46 8.17668 5.588C8.17668 5.708 8.12068 5.8 8.00868 5.864C7.90468 5.928 7.78868 5.96 7.66068 5.96C7.53268 5.96 7.42468 5.904 7.33668 5.792C7.25668 5.672 7.21668 5.544 7.21668 5.408C7.21668 5.168 7.33668 5.048 7.57668 5.048ZM6.49668 9.512C6.04868 9.992 5.59268 10.336 5.12868 10.544C4.98468 10.608 4.86868 10.64 4.78068 10.64C4.54068 10.64 4.42068 10.52 4.42068 10.28C4.42068 10.128 4.54068 10.004 4.78068 9.908C4.90868 9.86 5.07668 9.764 5.28468 9.62C5.50068 9.476 5.64468 9.368 5.71668 9.296C5.78868 9.224 5.91268 9.092 6.08868 8.9C6.27268 8.708 6.41668 8.564 6.52068 8.468C6.62468 8.364 6.76468 8.26 6.94068 8.156C7.12468 8.052 7.29268 8 7.44468 8C7.75668 8 7.99668 8.112 8.16468 8.336C8.33268 8.56 8.43268 8.808 8.46468 9.08C8.55268 9.8 8.69268 10.16 8.88468 10.16C9.03668 10.16 9.23268 10.12 9.47268 10.04C9.71268 9.96 9.84468 9.92 9.86868 9.92C10.1087 9.92 10.2287 10.04 10.2287 10.28C10.2287 10.456 10.1087 10.584 9.86868 10.664C9.43668 10.808 9.08468 10.88 8.81268 10.88C8.54868 10.88 8.33268 10.768 8.16468 10.544C7.99668 10.32 7.89668 10.072 7.86468 9.8C7.77668 9.08 7.63668 8.72 7.44468 8.72C7.34068 8.72 7.22068 8.788 7.08468 8.924C6.95668 9.052 6.85268 9.156 6.77268 9.236C6.69268 9.308 6.60068 9.4 6.49668 9.512Z" fill="white"/>
<path d="M3.84 10.88C3.416 10.88 3.088 10.688 2.856 10.304C2.632 9.92 2.52 9.48 2.52 8.984C2.52 8.728 2.64 8.6 2.88 8.6C3.12 8.6 3.24 8.744 3.24 9.032C3.24 9.32 3.296 9.58 3.408 9.812C3.52 10.044 3.656 10.16 3.816 10.16C3.984 10.16 4.188 10.12 4.428 10.04C4.668 9.96 4.8 9.92 4.824 9.92C5.064 9.92 5.184 10.04 5.184 10.28C5.184 10.456 5.064 10.584 4.824 10.664C4.392 10.808 4.064 10.88 3.84 10.88ZM1.44 3.104L1.428 3.308C1.332 4.268 1.268 4.98 1.236 5.444C1.212 5.908 1.2 6.468 1.2 7.124C1.2 7.772 1.22 8.196 1.26 8.396C1.452 7.972 1.78 7.58 2.244 7.22C2.708 6.86 3.28 6.68 3.96 6.68C4.2 6.68 4.32 6.8 4.32 7.04C4.32 7.28 4.2 7.4 3.96 7.4C3.632 7.4 3.328 7.46 3.048 7.58C2.776 7.7 2.56 7.848 2.4 8.024C2.096 8.36 1.904 8.66 1.824 8.924C1.808 8.972 1.78 9.076 1.74 9.236C1.708 9.388 1.684 9.488 1.668 9.536C1.66 9.592 1.632 9.664 1.584 9.752C1.504 9.904 1.376 9.98 1.2 9.98C1.032 9.98 0.867996 9.716 0.707996 9.188C0.555996 8.652 0.479996 8.176 0.479996 7.76C0.479996 7.344 0.479996 6.972 0.479996 6.644C0.487996 6.308 0.491996 6.044 0.491996 5.852C0.499996 5.652 0.515996 5.408 0.539996 5.12C0.563996 4.832 0.575996 4.644 0.575996 4.556C0.591996 4.18 0.639996 3.692 0.719996 3.092C0.743996 2.86 0.863996 2.744 1.08 2.744C1.32 2.744 1.44 2.864 1.44 3.104Z" fill="white"/>
</svg>
